# xmcd CD database file
#
# Track frame offsets:
#	150
#	12899
#	26698
#	41779
#	56253
#	70435
#	84909
#	97065
#	111539
#	122420
#	132927
#	144858
#	157914
#	170296
#	186953
#	201886
#	215843
#	227774
#	241956
#	252688
#	271970
#	281952
#	294859
#	308658
#	321565
#
# Disc length: 4522 seconds
#
# Revision: 0
# Processed by: cddbd v1.5.1PL2 Copyright (c) Steve Scherf et al.
# Submitted via: CdAid (MTCDDB.DLL V2003.07.15)
#
DISCID=7611a819
DTITLE=Johnny Cash/June Carter Cash - If I Were a Carpenter
DYEAR=2002
DGENRE=Country
TTITLE0=Jackson
TTITLE1=If I Were a Carpenter
TTITLE2=Greatest Man I Ever Knew
TTITLE3=I'm A Survivor
TTITLE4=Kathy's Clown
TTITLE5=Little Rock
TTITLE6=I'm so lonesome I Could Cry
TTITLE7=Down In The Valley
TTITLE8=In The Jailhouse Now
TTITLE9=Frankie's Man
TTITLE10=Ring Of Fire
TTITLE11=Give Me That Old Time Feelin'
TTITLE12=Far Side Of Jordan
TTITLE13=A Boy Named Sue
TTITLE14=I Walk The Line
TTITLE15=Don't Take Your Guns To Town
TTITLE16=Ring Of Fire
TTITLE17=Orange Blossom Special
TTITLE18=Daddy Sang Bass
TTITLE19=I've Got To Do My Time
TTITLE20=Rock Island Line
TTITLE21=Peace In The Valley
TTITLE22=If I Were A Carpenter
TTITLE23=Far Side Of Jordan
TTITLE24=When They Crucified My Lord
EXTD=ID3G:   2 YEAR: 2002
EXTT0=
EXTT1=
EXTT2=
EXTT3=
EXTT4=
EXTT5=
EXTT6=
EXTT7=
EXTT8=
EXTT9=
EXTT10=
EXTT11=
EXTT12=
EXTT13=
EXTT14=
EXTT15=
EXTT16=
EXTT17=
EXTT18=
EXTT19=
EXTT20=
EXTT21=
EXTT22=
EXTT23=
EXTT24=
PLAYORDER=
